<?xml version="1.0" encoding="utf-8" standalone="no"?>
<!DOCTYPE svg PUBLIC "-//W3C//DTD SVG 1.1//EN"
  "http://www.w3.org/Graphics/SVG/1.1/DTD/svg11.dtd">
<svg xmlns:xlink="http://www.w3.org/1999/xlink" width="460.8pt" height="345.6pt" viewBox="0 0 460.8 345.6" xmlns="http://www.w3.org/2000/svg" version="1.1">
 <metadata>
  <rdf:RDF xmlns:dc="http://purl.org/dc/elements/1.1/" xmlns:cc="http://creativecommons.org/ns#" xmlns:rdf="http://www.w3.org/1999/02/22-rdf-syntax-ns#">
   <cc:Work>
    <dc:type rdf:resource="http://purl.org/dc/dcmitype/StillImage"/>
    <dc:date>2023-07-07T12:46:59.826969</dc:date>
    <dc:format>image/svg+xml</dc:format>
    <dc:creator>
     <cc:Agent>
      <dc:title>Matplotlib v3.7.0, https://matplotlib.org/</dc:title>
     </cc:Agent>
    </dc:creator>
   </cc:Work>
  </rdf:RDF>
 </metadata>
 <defs>
  <style type="text/css">*{stroke-linejoin: round; stroke-linecap: butt}</style>
 </defs>
 <g id="figure_1">
  <g id="patch_1">
   <path d="M 0 345.6 
L 460.8 345.6 
L 460.8 0 
L 0 0 
z
" style="fill: #ffffff"/>
  </g>
  <g id="axes_1">
   <g id="patch_2">
    <path d="M 57.6 307.584 
L 414.72 307.584 
L 414.72 41.472 
L 57.6 41.472 
z
" style="fill: #ffffff"/>
   </g>
   <g id="PolyCollection_1">
    <defs>
     <path id="m19dd912784" d="M 73.832727 -139.270801 
L 73.832727 -116.704323 
L 78.905455 -137.295276 
L 83.978182 -137.590509 
L 89.050909 -95.320254 
L 94.123636 -108.770339 
L 99.196364 -101.828891 
L 104.269091 -95.858922 
L 109.341818 -88.310886 
L 114.414545 -97.141099 
L 119.487273 -89.744058 
L 124.56 -95.231869 
L 129.632727 -73.961196 
L 134.705455 -97.511249 
L 139.778182 -82.330157 
L 144.850909 -87.357961 
L 149.923636 -73.167871 
L 154.996364 -78.030607 
L 160.069091 -83.287199 
L 165.141818 -88.039644 
L 170.214545 -89.214041 
L 175.287273 -75.173031 
L 180.36 -76.476089 
L 185.432727 -69.29562 
L 190.505455 -75.247153 
L 195.578182 -75.06766 
L 200.650909 -82.900861 
L 205.723636 -84.549942 
L 210.796364 -101.349958 
L 215.869091 -95.689784 
L 220.941818 -93.868967 
L 226.014545 -119.008316 
L 231.087273 -109.326579 
L 236.16 -117.944529 
L 241.232727 -123.091726 
L 246.305455 -119.46244 
L 251.378182 -124.348314 
L 256.450909 -127.87208 
L 261.523636 -141.320154 
L 266.596364 -131.242121 
L 271.669091 -107.566134 
L 276.741818 -149.062034 
L 281.814545 -173.522779 
L 286.887273 -166.838778 
L 291.96 -177.500508 
L 297.032727 -225.463684 
L 302.105455 -213.074494 
L 307.178182 -217.991111 
L 312.250909 -200.295858 
L 317.323636 -197.440245 
L 322.396364 -214.802559 
L 327.469091 -213.300205 
L 332.541818 -206.344499 
L 337.614545 -179.952863 
L 342.687273 -187.891401 
L 347.76 -152.951289 
L 352.832727 -170.098147 
L 357.905455 -177.258778 
L 362.978182 -150.946055 
L 368.050909 -139.003635 
L 373.123636 -122.601113 
L 378.196364 -141.190121 
L 383.269091 -107.941607 
L 388.341818 -101.969425 
L 393.414545 -104.34455 
L 398.487273 -90.709554 
L 398.487273 -104.619774 
L 398.487273 -104.619774 
L 393.414545 -127.514584 
L 388.341818 -123.579978 
L 383.269091 -128.957192 
L 378.196364 -185.656559 
L 373.123636 -154.68421 
L 368.050909 -169.760817 
L 362.978182 -196.211515 
L 357.905455 -226.023535 
L 352.832727 -217.652675 
L 347.76 -193.889557 
L 342.687273 -242.106884 
L 337.614545 -228.806091 
L 332.541818 -269.398055 
L 327.469091 -276.644933 
L 322.396364 -273.879689 
L 317.323636 -250.856784 
L 312.250909 -259.446681 
L 307.178182 -291.890971 
L 302.105455 -277.132455 
L 297.032727 -292.032 
L 291.96 -225.988891 
L 286.887273 -212.819222 
L 281.814545 -220.937383 
L 276.741818 -188.305986 
L 271.669091 -130.420337 
L 266.596364 -159.102798 
L 261.523636 -174.556211 
L 256.450909 -154.410428 
L 251.378182 -151.641073 
L 246.305455 -145.745517 
L 241.232727 -149.89616 
L 236.16 -140.561681 
L 231.087273 -128.984308 
L 226.014545 -147.340687 
L 220.941818 -113.387931 
L 215.869091 -110.451492 
L 210.796364 -120.143545 
L 205.723636 -102.030829 
L 200.650909 -97.073457 
L 195.578182 -82.888249 
L 190.505455 -85.080339 
L 185.432727 -78.73758 
L 180.36 -86.162838 
L 175.287273 -84.183662 
L 170.214545 -103.780694 
L 165.141818 -104.069722 
L 160.069091 -95.134276 
L 154.996364 -88.935735 
L 149.923636 -81.909881 
L 144.850909 -99.615571 
L 139.778182 -93.851453 
L 134.705455 -113.113991 
L 129.632727 -81.743098 
L 124.56 -111.927336 
L 119.487273 -103.211473 
L 114.414545 -114.871162 
L 109.341818 -102.456026 
L 104.269091 -111.849595 
L 99.196364 -120.700768 
L 94.123636 -128.926568 
L 89.050909 -110.713615 
L 83.978182 -170.875661 
L 78.905455 -165.239994 
L 73.832727 -139.270801 
z
" style="stroke: #808080; stroke-opacity: 0.2"/>
    </defs>
    <g clip-path="url(#p8d34706094)">
     <use xlink:href="#m19dd912784" x="0" y="345.6" style="fill: #808080; fill-opacity: 0.2; stroke: #808080; stroke-opacity: 0.2"/>
    </g>
   </g>
   <g id="matplotlib.axis_1">
    <g id="xtick_1">
     <g id="line2d_1">
      <defs>
       <path id="m361282d12a" d="M 0 0 
L 0 3.5 
" style="stroke: #000000; stroke-width: 0.8"/>
      </defs>
      <g>
       <use xlink:href="#m361282d12a" x="79.63013" y="307.584" style="stroke: #000000; stroke-width: 0.8"/>
      </g>
     </g>
     <g id="text_1">
      <!-- 2022-03 -->
      <g transform="translate(58.738724 322.182437) scale(0.1 -0.1)">
       <defs>
        <path id="DejaVuSans-32" d="M 1228 531 
L 3431 531 
L 3431 0 
L 469 0 
L 469 531 
Q 828 903 1448 1529 
Q 2069 2156 2228 2338 
Q 2531 2678 2651 2914 
Q 2772 3150 2772 3378 
Q 2772 3750 2511 3984 
Q 2250 4219 1831 4219 
Q 1534 4219 1204 4116 
Q 875 4013 500 3803 
L 500 4441 
Q 881 4594 1212 4672 
Q 1544 4750 1819 4750 
Q 2544 4750 2975 4387 
Q 3406 4025 3406 3419 
Q 3406 3131 3298 2873 
Q 3191 2616 2906 2266 
Q 2828 2175 2409 1742 
Q 1991 1309 1228 531 
z
" transform="scale(0.015625)"/>
        <path id="DejaVuSans-30" d="M 2034 4250 
Q 1547 4250 1301 3770 
Q 1056 3291 1056 2328 
Q 1056 1369 1301 889 
Q 1547 409 2034 409 
Q 2525 409 2770 889 
Q 3016 1369 3016 2328 
Q 3016 3291 2770 3770 
Q 2525 4250 2034 4250 
z
M 2034 4750 
Q 2819 4750 3233 4129 
Q 3647 3509 3647 2328 
Q 3647 1150 3233 529 
Q 2819 -91 2034 -91 
Q 1250 -91 836 529 
Q 422 1150 422 2328 
Q 422 3509 836 4129 
Q 1250 4750 2034 4750 
z
" transform="scale(0.015625)"/>
        <path id="DejaVuSans-2d" d="M 313 2009 
L 1997 2009 
L 1997 1497 
L 313 1497 
L 313 2009 
z
" transform="scale(0.015625)"/>
        <path id="DejaVuSans-33" d="M 2597 2516 
Q 3050 2419 3304 2112 
Q 3559 1806 3559 1356 
Q 3559 666 3084 287 
Q 2609 -91 1734 -91 
Q 1441 -91 1130 -33 
Q 819 25 488 141 
L 488 750 
Q 750 597 1062 519 
Q 1375 441 1716 441 
Q 2309 441 2620 675 
Q 2931 909 2931 1356 
Q 2931 1769 2642 2001 
Q 2353 2234 1838 2234 
L 1294 2234 
L 1294 2753 
L 1863 2753 
Q 2328 2753 2575 2939 
Q 2822 3125 2822 3475 
Q 2822 3834 2567 4026 
Q 2313 4219 1838 4219 
Q 1578 4219 1281 4162 
Q 984 4106 628 3988 
L 628 4550 
Q 988 4650 1302 4700 
Q 1616 4750 1894 4750 
Q 2613 4750 3031 4423 
Q 3450 4097 3450 3541 
Q 3450 3153 3228 2886 
Q 3006 2619 2597 2516 
z
" transform="scale(0.015625)"/>
       </defs>
       <use xlink:href="#DejaVuSans-32"/>
       <use xlink:href="#DejaVuSans-30" x="63.623047"/>
       <use xlink:href="#DejaVuSans-32" x="127.246094"/>
       <use xlink:href="#DejaVuSans-32" x="190.869141"/>
       <use xlink:href="#DejaVuSans-2d" x="254.492188"/>
       <use xlink:href="#DejaVuSans-30" x="290.576172"/>
       <use xlink:href="#DejaVuSans-33" x="354.199219"/>
      </g>
     </g>
    </g>
    <g id="xtick_2">
     <g id="line2d_2">
      <g>
       <use xlink:href="#m361282d12a" x="123.835325" y="307.584" style="stroke: #000000; stroke-width: 0.8"/>
      </g>
     </g>
     <g id="text_2">
      <!-- 2022-05 -->
      <g transform="translate(102.943918 322.182437) scale(0.1 -0.1)">
       <defs>
        <path id="DejaVuSans-35" d="M 691 4666 
L 3169 4666 
L 3169 4134 
L 1269 4134 
L 1269 2991 
Q 1406 3038 1543 3061 
Q 1681 3084 1819 3084 
Q 2600 3084 3056 2656 
Q 3513 2228 3513 1497 
Q 3513 744 3044 326 
Q 2575 -91 1722 -91 
Q 1428 -91 1123 -41 
Q 819 9 494 109 
L 494 744 
Q 775 591 1075 516 
Q 1375 441 1709 441 
Q 2250 441 2565 725 
Q 2881 1009 2881 1497 
Q 2881 1984 2565 2268 
Q 2250 2553 1709 2553 
Q 1456 2553 1204 2497 
Q 953 2441 691 2322 
L 691 4666 
z
" transform="scale(0.015625)"/>
       </defs>
       <use xlink:href="#DejaVuSans-32"/>
       <use xlink:href="#DejaVuSans-30" x="63.623047"/>
       <use xlink:href="#DejaVuSans-32" x="127.246094"/>
       <use xlink:href="#DejaVuSans-32" x="190.869141"/>
       <use xlink:href="#DejaVuSans-2d" x="254.492188"/>
       <use xlink:href="#DejaVuSans-30" x="290.576172"/>
       <use xlink:href="#DejaVuSans-35" x="354.199219"/>
      </g>
     </g>
    </g>
    <g id="xtick_3">
     <g id="line2d_3">
      <g>
       <use xlink:href="#m361282d12a" x="168.040519" y="307.584" style="stroke: #000000; stroke-width: 0.8"/>
      </g>
     </g>
     <g id="text_3">
      <!-- 2022-07 -->
      <g transform="translate(147.149113 322.182437) scale(0.1 -0.1)">
       <defs>
        <path id="DejaVuSans-37" d="M 525 4666 
L 3525 4666 
L 3525 4397 
L 1831 0 
L 1172 0 
L 2766 4134 
L 525 4134 
L 525 4666 
z
" transform="scale(0.015625)"/>
       </defs>
       <use xlink:href="#DejaVuSans-32"/>
       <use xlink:href="#DejaVuSans-30" x="63.623047"/>
       <use xlink:href="#DejaVuSans-32" x="127.246094"/>
       <use xlink:href="#DejaVuSans-32" x="190.869141"/>
       <use xlink:href="#DejaVuSans-2d" x="254.492188"/>
       <use xlink:href="#DejaVuSans-30" x="290.576172"/>
       <use xlink:href="#DejaVuSans-37" x="354.199219"/>
      </g>
     </g>
    </g>
    <g id="xtick_4">
     <g id="line2d_4">
      <g>
       <use xlink:href="#m361282d12a" x="212.97039" y="307.584" style="stroke: #000000; stroke-width: 0.8"/>
      </g>
     </g>
     <g id="text_4">
      <!-- 2022-09 -->
      <g transform="translate(192.078983 322.182437) scale(0.1 -0.1)">
       <defs>
        <path id="DejaVuSans-39" d="M 703 97 
L 703 672 
Q 941 559 1184 500 
Q 1428 441 1663 441 
Q 2288 441 2617 861 
Q 2947 1281 2994 2138 
Q 2813 1869 2534 1725 
Q 2256 1581 1919 1581 
Q 1219 1581 811 2004 
Q 403 2428 403 3163 
Q 403 3881 828 4315 
Q 1253 4750 1959 4750 
Q 2769 4750 3195 4129 
Q 3622 3509 3622 2328 
Q 3622 1225 3098 567 
Q 2575 -91 1691 -91 
Q 1453 -91 1209 -44 
Q 966 3 703 97 
z
M 1959 2075 
Q 2384 2075 2632 2365 
Q 2881 2656 2881 3163 
Q 2881 3666 2632 3958 
Q 2384 4250 1959 4250 
Q 1534 4250 1286 3958 
Q 1038 3666 1038 3163 
Q 1038 2656 1286 2365 
Q 1534 2075 1959 2075 
z
" transform="scale(0.015625)"/>
       </defs>
       <use xlink:href="#DejaVuSans-32"/>
       <use xlink:href="#DejaVuSans-30" x="63.623047"/>
       <use xlink:href="#DejaVuSans-32" x="127.246094"/>
       <use xlink:href="#DejaVuSans-32" x="190.869141"/>
       <use xlink:href="#DejaVuSans-2d" x="254.492188"/>
       <use xlink:href="#DejaVuSans-30" x="290.576172"/>
       <use xlink:href="#DejaVuSans-39" x="354.199219"/>
      </g>
     </g>
    </g>
    <g id="xtick_5">
     <g id="line2d_5">
      <g>
       <use xlink:href="#m361282d12a" x="257.175584" y="307.584" style="stroke: #000000; stroke-width: 0.8"/>
      </g>
     </g>
     <g id="text_5">
      <!-- 2022-11 -->
      <g transform="translate(236.284178 322.182437) scale(0.1 -0.1)">
       <defs>
        <path id="DejaVuSans-31" d="M 794 531 
L 1825 531 
L 1825 4091 
L 703 3866 
L 703 4441 
L 1819 4666 
L 2450 4666 
L 2450 531 
L 3481 531 
L 3481 0 
L 794 0 
L 794 531 
z
" transform="scale(0.015625)"/>
       </defs>
       <use xlink:href="#DejaVuSans-32"/>
       <use xlink:href="#DejaVuSans-30" x="63.623047"/>
       <use xlink:href="#DejaVuSans-32" x="127.246094"/>
       <use xlink:href="#DejaVuSans-32" x="190.869141"/>
       <use xlink:href="#DejaVuSans-2d" x="254.492188"/>
       <use xlink:href="#DejaVuSans-31" x="290.576172"/>
       <use xlink:href="#DejaVuSans-31" x="354.199219"/>
      </g>
     </g>
    </g>
    <g id="xtick_6">
     <g id="line2d_6">
      <g>
       <use xlink:href="#m361282d12a" x="301.380779" y="307.584" style="stroke: #000000; stroke-width: 0.8"/>
      </g>
     </g>
     <g id="text_6">
      <!-- 2023-01 -->
      <g transform="translate(280.489373 322.182437) scale(0.1 -0.1)">
       <use xlink:href="#DejaVuSans-32"/>
       <use xlink:href="#DejaVuSans-30" x="63.623047"/>
       <use xlink:href="#DejaVuSans-32" x="127.246094"/>
       <use xlink:href="#DejaVuSans-33" x="190.869141"/>
       <use xlink:href="#DejaVuSans-2d" x="254.492188"/>
       <use xlink:href="#DejaVuSans-30" x="290.576172"/>
       <use xlink:href="#DejaVuSans-31" x="354.199219"/>
      </g>
     </g>
    </g>
    <g id="xtick_7">
     <g id="line2d_7">
      <g>
       <use xlink:href="#m361282d12a" x="344.136623" y="307.584" style="stroke: #000000; stroke-width: 0.8"/>
      </g>
     </g>
     <g id="text_7">
      <!-- 2023-03 -->
      <g transform="translate(323.245217 322.182437) scale(0.1 -0.1)">
       <use xlink:href="#DejaVuSans-32"/>
       <use xlink:href="#DejaVuSans-30" x="63.623047"/>
       <use xlink:href="#DejaVuSans-32" x="127.246094"/>
       <use xlink:href="#DejaVuSans-33" x="190.869141"/>
       <use xlink:href="#DejaVuSans-2d" x="254.492188"/>
       <use xlink:href="#DejaVuSans-30" x="290.576172"/>
       <use xlink:href="#DejaVuSans-33" x="354.199219"/>
      </g>
     </g>
    </g>
    <g id="xtick_8">
     <g id="line2d_8">
      <g>
       <use xlink:href="#m361282d12a" x="388.341818" y="307.584" style="stroke: #000000; stroke-width: 0.8"/>
      </g>
     </g>
     <g id="text_8">
      <!-- 2023-05 -->
      <g transform="translate(367.450412 322.182437) scale(0.1 -0.1)">
       <use xlink:href="#DejaVuSans-32"/>
       <use xlink:href="#DejaVuSans-30" x="63.623047"/>
       <use xlink:href="#DejaVuSans-32" x="127.246094"/>
       <use xlink:href="#DejaVuSans-33" x="190.869141"/>
       <use xlink:href="#DejaVuSans-2d" x="254.492188"/>
       <use xlink:href="#DejaVuSans-30" x="290.576172"/>
       <use xlink:href="#DejaVuSans-35" x="354.199219"/>
      </g>
     </g>
    </g>
   </g>
   <g id="matplotlib.axis_2">
    <g id="ytick_1">
     <g id="line2d_9">
      <defs>
       <path id="m9e85d3b40e" d="M 0 0 
L -3.5 0 
" style="stroke: #000000; stroke-width: 0.8"/>
      </defs>
      <g>
       <use xlink:href="#m9e85d3b40e" x="57.6" y="296.223308" style="stroke: #000000; stroke-width: 0.8"/>
      </g>
     </g>
     <g id="text_9">
      <!-- 0 -->
      <g transform="translate(44.2375 300.022526) scale(0.1 -0.1)">
       <use xlink:href="#DejaVuSans-30"/>
      </g>
     </g>
    </g>
    <g id="ytick_2">
     <g id="line2d_10">
      <g>
       <use xlink:href="#m9e85d3b40e" x="57.6" y="265.585493" style="stroke: #000000; stroke-width: 0.8"/>
      </g>
     </g>
     <g id="text_10">
      <!-- 250 -->
      <g transform="translate(31.5125 269.384712) scale(0.1 -0.1)">
       <use xlink:href="#DejaVuSans-32"/>
       <use xlink:href="#DejaVuSans-35" x="63.623047"/>
       <use xlink:href="#DejaVuSans-30" x="127.246094"/>
      </g>
     </g>
    </g>
    <g id="ytick_3">
     <g id="line2d_11">
      <g>
       <use xlink:href="#m9e85d3b40e" x="57.6" y="234.947679" style="stroke: #000000; stroke-width: 0.8"/>
      </g>
     </g>
     <g id="text_11">
      <!-- 500 -->
      <g transform="translate(31.5125 238.746898) scale(0.1 -0.1)">
       <use xlink:href="#DejaVuSans-35"/>
       <use xlink:href="#DejaVuSans-30" x="63.623047"/>
       <use xlink:href="#DejaVuSans-30" x="127.246094"/>
      </g>
     </g>
    </g>
    <g id="ytick_4">
     <g id="line2d_12">
      <g>
       <use xlink:href="#m9e85d3b40e" x="57.6" y="204.309865" style="stroke: #000000; stroke-width: 0.8"/>
      </g>
     </g>
     <g id="text_12">
      <!-- 750 -->
      <g transform="translate(31.5125 208.109084) scale(0.1 -0.1)">
       <use xlink:href="#DejaVuSans-37"/>
       <use xlink:href="#DejaVuSans-35" x="63.623047"/>
       <use xlink:href="#DejaVuSans-30" x="127.246094"/>
      </g>
     </g>
    </g>
    <g id="ytick_5">
     <g id="line2d_13">
      <g>
       <use xlink:href="#m9e85d3b40e" x="57.6" y="173.672051" style="stroke: #000000; stroke-width: 0.8"/>
      </g>
     </g>
     <g id="text_13">
      <!-- 1000 -->
      <g transform="translate(25.15 177.471269) scale(0.1 -0.1)">
       <use xlink:href="#DejaVuSans-31"/>
       <use xlink:href="#DejaVuSans-30" x="63.623047"/>
       <use xlink:href="#DejaVuSans-30" x="127.246094"/>
       <use xlink:href="#DejaVuSans-30" x="190.869141"/>
      </g>
     </g>
    </g>
    <g id="ytick_6">
     <g id="line2d_14">
      <g>
       <use xlink:href="#m9e85d3b40e" x="57.6" y="143.034236" style="stroke: #000000; stroke-width: 0.8"/>
      </g>
     </g>
     <g id="text_14">
      <!-- 1250 -->
      <g transform="translate(25.15 146.833455) scale(0.1 -0.1)">
       <use xlink:href="#DejaVuSans-31"/>
       <use xlink:href="#DejaVuSans-32" x="63.623047"/>
       <use xlink:href="#DejaVuSans-35" x="127.246094"/>
       <use xlink:href="#DejaVuSans-30" x="190.869141"/>
      </g>
     </g>
    </g>
    <g id="ytick_7">
     <g id="line2d_15">
      <g>
       <use xlink:href="#m9e85d3b40e" x="57.6" y="112.396422" style="stroke: #000000; stroke-width: 0.8"/>
      </g>
     </g>
     <g id="text_15">
      <!-- 1500 -->
      <g transform="translate(25.15 116.195641) scale(0.1 -0.1)">
       <use xlink:href="#DejaVuSans-31"/>
       <use xlink:href="#DejaVuSans-35" x="63.623047"/>
       <use xlink:href="#DejaVuSans-30" x="127.246094"/>
       <use xlink:href="#DejaVuSans-30" x="190.869141"/>
      </g>
     </g>
    </g>
    <g id="ytick_8">
     <g id="line2d_16">
      <g>
       <use xlink:href="#m9e85d3b40e" x="57.6" y="81.758608" style="stroke: #000000; stroke-width: 0.8"/>
      </g>
     </g>
     <g id="text_16">
      <!-- 1750 -->
      <g transform="translate(25.15 85.557827) scale(0.1 -0.1)">
       <use xlink:href="#DejaVuSans-31"/>
       <use xlink:href="#DejaVuSans-37" x="63.623047"/>
       <use xlink:href="#DejaVuSans-35" x="127.246094"/>
       <use xlink:href="#DejaVuSans-30" x="190.869141"/>
      </g>
     </g>
    </g>
    <g id="ytick_9">
     <g id="line2d_17">
      <g>
       <use xlink:href="#m9e85d3b40e" x="57.6" y="51.120794" style="stroke: #000000; stroke-width: 0.8"/>
      </g>
     </g>
     <g id="text_17">
      <!-- 2000 -->
      <g transform="translate(25.15 54.920012) scale(0.1 -0.1)">
       <use xlink:href="#DejaVuSans-32"/>
       <use xlink:href="#DejaVuSans-30" x="63.623047"/>
       <use xlink:href="#DejaVuSans-30" x="127.246094"/>
       <use xlink:href="#DejaVuSans-30" x="190.869141"/>
      </g>
     </g>
    </g>
   </g>
   <g id="line2d_18">
    <path d="M 73.832727 219.517274 
L 78.905455 196.543354 
L 83.978182 194.795228 
L 89.050909 243.815404 
L 94.123636 228.517372 
L 99.196364 236.163849 
L 104.269091 242.979808 
L 109.341818 251.482965 
L 114.414545 241.366516 
L 119.487273 250.246501 
L 124.56 243.502315 
L 129.632727 268.3756 
L 134.705455 241.557568 
L 139.778182 258.521908 
L 144.850909 253.133655 
L 149.923636 268.834919 
L 154.996364 263.084944 
L 160.069091 257.440127 
L 165.141818 251.154195 
L 170.214545 250.408687 
L 175.287273 266.724565 
L 180.36 265.152375 
L 185.432727 272.53846 
L 190.505455 266.253 
L 195.578182 266.98898 
L 200.650909 257.094598 
L 205.723636 254.319438 
L 210.796364 236.492167 
L 215.869091 243.588243 
L 220.941818 244.055549 
L 226.014545 215.268344 
L 231.087273 228.009152 
L 236.16 218.181695 
L 241.232727 211.363723 
L 246.305455 215.370136 
L 251.378182 210.007235 
L 256.450909 206.655633 
L 261.523636 190.605641 
L 266.596364 202.695291 
L 271.669091 228.838077 
L 276.741818 180.653947 
L 281.814545 152.641567 
L 286.887273 159.971245 
L 291.96 148.073849 
L 297.032727 92.764304 
L 302.105455 106.303309 
L 307.178182 98.150168 
L 312.250909 121.228434 
L 317.323636 125.874261 
L 322.396364 106.22131 
L 327.469091 106.295019 
L 332.541818 113.505342 
L 337.614545 145.407016 
L 342.687273 135.601339 
L 347.76 175.83103 
L 352.832727 156.126794 
L 357.905455 148.202944 
L 362.978182 176.572699 
L 368.050909 193.483492 
L 373.123636 209.962622 
L 378.196364 186.992151 
L 383.269091 228.758889 
L 388.341818 234.626665 
L 393.414545 231.820032 
L 398.487273 248.923164 
" clip-path="url(#p8d34706094)" style="fill: none; stroke: #000000; stroke-width: 1.5; stroke-linecap: square"/>
   </g>
   <g id="line2d_19">
    <path d="M 73.832727 295.488 
L 78.905455 282.987772 
L 83.978182 266.075698 
L 89.050909 247.447907 
L 94.123636 246.7126 
L 99.196364 257.006905 
L 104.269091 261.786404 
L 109.341818 271.467954 
L 114.414545 273.183671 
L 119.487273 260.560892 
L 124.56 262.766814 
L 129.632727 261.173648 
L 134.705455 263.011917 
L 139.778182 257.864764 
L 144.850909 259.335379 
L 149.923636 262.521712 
L 154.996364 266.320801 
L 160.069091 261.786404 
L 165.141818 265.708045 
L 170.214545 265.830596 
L 175.287273 270.11989 
L 180.36 270.242441 
L 185.432727 274.04153 
L 190.505455 276.737658 
L 195.578182 275.757248 
L 200.650909 276.00235 
L 205.723636 275.879799 
L 210.796364 275.02194 
L 215.869091 264.482532 
L 220.941818 267.913967 
L 226.014545 268.894377 
L 231.087273 267.056108 
L 236.16 257.619662 
L 241.232727 259.090277 
L 246.305455 262.031507 
L 251.378182 262.521712 
L 256.450909 262.031507 
L 261.523636 255.046085 
L 266.596364 260.315789 
L 271.669091 263.134468 
L 276.741818 267.913967 
L 281.814545 251.369548 
L 286.887273 265.462942 
L 291.96 250.389137 
L 297.032727 261.541302 
L 302.105455 254.310778 
L 307.178182 227.349501 
L 312.250909 229.065219 
L 317.323636 211.417838 
L 322.396364 207.373646 
L 327.469091 216.319888 
L 332.541818 212.64335 
L 337.614545 187.397791 
L 342.687273 192.544944 
L 347.76 212.398248 
L 352.832727 199.775468 
L 357.905455 204.064762 
L 362.978182 198.672507 
L 368.050909 227.472052 
L 373.123636 224.898476 
L 378.196364 202.594147 
L 383.269091 238.501666 
L 388.341818 236.540845 
L 393.414545 228.942668 
L 398.487273 244.016472 
" clip-path="url(#p8d34706094)" style="fill: none; stroke: #008000; stroke-width: 1.5; stroke-linecap: square"/>
   </g>
   <g id="patch_3">
    <path d="M 57.6 307.584 
L 57.6 41.472 
" style="fill: none; stroke: #000000; stroke-width: 0.8; stroke-linejoin: miter; stroke-linecap: square"/>
   </g>
   <g id="patch_4">
    <path d="M 414.72 307.584 
L 414.72 41.472 
" style="fill: none; stroke: #000000; stroke-width: 0.8; stroke-linejoin: miter; stroke-linecap: square"/>
   </g>
   <g id="patch_5">
    <path d="M 57.6 307.584 
L 414.72 307.584 
" style="fill: none; stroke: #000000; stroke-width: 0.8; stroke-linejoin: miter; stroke-linecap: square"/>
   </g>
   <g id="patch_6">
    <path d="M 57.6 41.472 
L 414.72 41.472 
" style="fill: none; stroke: #000000; stroke-width: 0.8; stroke-linejoin: miter; stroke-linecap: square"/>
   </g>
  </g>
 </g>
 <defs>
  <clipPath id="p8d34706094">
   <rect x="57.6" y="41.472" width="357.12" height="266.112"/>
  </clipPath>
 </defs>
</svg>
